<svg xmlns="http://www.w3.org/2000/svg" version="1.1" xmlns:xlink="http://www.w3.org/1999/xlink" xmlns:svgjs="http://svgjs.com/svgjs" width="1440" height="560" preserveAspectRatio="none" viewBox="0 0 1440 560"><g mask="url(&quot;#SvgjsMask1009&quot;)" fill="none"><rect width="1440" height="560" x="0" y="0" fill="rgba(240, 240, 240, 1)"></rect><path d="M372.22 261.18L390.5 261.18L390.5 278.31L372.22 278.31z" fill="rgba(228, 234, 239, 1)"></path><path d="M360.67 152.44L405.29 152.44L405.29 183.33L360.67 183.33z" fill="rgba(102, 191, 206, 1)"></path><path d="M846.14 111.62a28.35 28.35 0 1 0-56.44 5.42z" fill="rgba(102, 191, 206, 1)"></path><path d="M1170.16 41L1186.32 41L1186.32 65.73L1170.16 65.73z" stroke="rgba(102, 191, 206, 1)"></path><path d="M98.32 506.32L138.74 506.32L138.74 546.74L98.32 546.74z" fill="rgba(249, 198, 197, 1)"></path><path d="M499.77 466.02a51.33 51.33 0 1 0-88.22-52.48z" fill="rgba(228, 234, 239, 1)"></path><path d="M704.92 534.15a0.91 0.91 0 1 0-1.78 0.4z" stroke="rgba(102, 191, 206, 1)"></path><path d="M844.83 404.23a41.82 41.82 0 1 0 12.31 82.73z" fill="rgba(228, 234, 239, 1)"></path><path d="M358.75 232.44 a27.63 27.63 0 1 0 55.26 0 a27.63 27.63 0 1 0 -55.26 0z" stroke="rgba(228, 234, 239, 1)"></path><path d="M209.32 280.04 a9.56 9.56 0 1 0 19.12 0 a9.56 9.56 0 1 0 -19.12 0z" fill="rgba(249, 198, 197, 1)"></path><path d="M1094.92 66.77a0.01 0.01 0 1 0-0.01-0.01z" stroke="rgba(249, 198, 197, 1)"></path><path d="M139.1 265.93a13.44 13.44 0 1 0 14.78-22.45z" stroke="rgba(102, 191, 206, 1)"></path><path d="M36.84 548.31L56.53 548.31L56.53 568L36.84 568z" fill="rgba(249, 198, 197, 1)"></path><path d="M431.89 505.63L479.74 505.63L479.74 553.48L431.89 553.48z" stroke="rgba(249, 198, 197, 1)"></path><path d="M1365.62 20.2L1410.91 20.2L1410.91 28.97L1365.62 28.97z" stroke="rgba(249, 198, 197, 1)"></path><path d="M1114.54 97.01 a28.27 28.27 0 1 0 56.54 0 a28.27 28.27 0 1 0 -56.54 0z" stroke="rgba(249, 198, 197, 1)"></path><path d="M148.26 117.69L203.98 117.69L203.98 123.76L148.26 123.76z" stroke="rgba(228, 234, 239, 1)"></path><path d="M54.73 50.29L97.97 50.29L97.97 93.53L54.73 93.53z" stroke="rgba(249, 198, 197, 1)"></path><path d="M104.7 485.01 a19.2 19.2 0 1 0 38.4 0 a19.2 19.2 0 1 0 -38.4 0z" stroke="rgba(249, 198, 197, 1)"></path><path d="M1260.1 185.61L1285.7 185.61L1285.7 211.21L1260.1 211.21z" stroke="rgba(228, 234, 239, 1)"></path><path d="M255.41 204.18L290.46 204.18L290.46 235.88L255.41 235.88z" stroke="rgba(102, 191, 206, 1)"></path><path d="M1094.26 214.54L1149.14 214.54L1149.14 269.42L1094.26 269.42z" stroke="rgba(228, 234, 239, 1)"></path><path d="M42.85 372.49a3.39 3.39 0 1 0 1.38-6.64z" fill="rgba(228, 234, 239, 1)"></path><path d="M277.85 118.51 a8.67 8.67 0 1 0 17.34 0 a8.67 8.67 0 1 0 -17.34 0z" fill="rgba(228, 234, 239, 1)"></path><path d="M378.11 35.62a54.99 54.99 0 1 0 88.33 65.52z" fill="rgba(102, 191, 206, 1)"></path><path d="M573.15 246.65L602.32 246.65L602.32 275.82L573.15 275.82z" stroke="rgba(228, 234, 239, 1)"></path><path d="M1209.27 159.85 a16.45 16.45 0 1 0 32.9 0 a16.45 16.45 0 1 0 -32.9 0z" stroke="rgba(228, 234, 239, 1)"></path><path d="M1280.49 483.45 a10.24 10.24 0 1 0 20.48 0 a10.24 10.24 0 1 0 -20.48 0z" fill="rgba(102, 191, 206, 1)"></path><path d="M1066.56 81.74L1106.59 81.74L1106.59 121.77L1066.56 121.77z" stroke="rgba(249, 198, 197, 1)"></path><path d="M217.81 444.02L256.91 444.02L256.91 496.84L217.81 496.84z" stroke="rgba(102, 191, 206, 1)"></path><path d="M624.03 353.47L654.43 353.47L654.43 403.33L624.03 403.33z" stroke="rgba(228, 234, 239, 1)"></path><path d="M976.46 112.49 a24.87 24.87 0 1 0 49.74 0 a24.87 24.87 0 1 0 -49.74 0z" fill="rgba(102, 191, 206, 1)"></path><path d="M716.27 318.97a37.18 37.18 0 1 0 24.42 70.24z" fill="rgba(249, 198, 197, 1)"></path></g><defs><mask id="SvgjsMask1009"><rect width="1440" height="560" fill="#ffffff"></rect></mask></defs></svg>